#!OML:ASF E:\Steps\Project 1\Capture day 1\Session 2\Subject.ASF
:FULLY-SPECIFIED
:DEGREES
225
root 12.5198 20.7977 9.21015 -134.212 -63.9866 538.747
lowerback -19.2743 -1.3882 -11.1214
upperback -0.89279 0.396676 0.810427
thorax 9.79029 -0.39573 7.35959
lowerneck -1.99599 -0.51786 -5.82637
upperneck 9.23345 -1.22406 7.8035
head 3.13757 -0.562952 3.28002
rclavicle -3.4191e-014 5.68524e-014
rhumerus -26.5557 18.5674 -74.9047
rradius 44.2354
rwrist 0.903273
rhand 20.2356 -49.6291
rfingers 7.12502
rthumb 44.7545 -73.2247
lclavicle -3.4191e-014 5.68524e-014
lhumerus -2.62168 -33.9368 19.3429
lradius 107.272
lwrist 14.0132
lhand -23.1081 -34.3382
lfingers 7.12502
lthumb 3.33873 -4.38456
rfemur -45.1982 -4.08944 23.2077
rtibia 13.8883
rfoot 12.3377 -30.2619
rtoes -18.2324
lfemur -55.626 -5.0349 -6.46581
ltibia 21.8882
lfoot 28.8644 6.16383
ltoes -47.5035
226
root 12.5755 20.543 9.24772 -135.535 -61.433 540.369
lowerback -18.9383 -1.52466 -11.5648
upperback -0.697759 0.299582 0.685576
thorax 9.84521 -0.468689 7.44294
lowerneck -1.94419 -0.507474 -6.01203
upperneck 9.22526 -1.21237 7.86571
head 3.12665 -0.563942 3.33033
rclavicle -2.00773e-014 6.42074e-014
rhumerus -26.5333 18.8212 -74.2111
rradius 43.7512
rwrist 0.357678
rhand 20.2738 -50.1323
rfingers 7.12502
rthumb 44.79 -73.7141
lclavicle -2.00773e-014 6.42074e-014
lhumerus -2.83204 -34.7439 20.9778
lradius 105.942
lwrist 13.2982
lhand -23.3466 -34.546
lfingers 7.12502
lthumb 3.10841 -4.58893
rfemur -45.511 -4.55734 24.2452
rtibia 13.4831
rfoot 12.8077 -29.3699
rtoes -19.0389
lfemur -55.4812 -6.18447 -4.1333
ltibia 19.5528
lfoot 27.7997 8.22033
ltoes -47.3076
227
root 12.6274 20.2745 9.28608 -136.371 -58.8949 541.634
lowerback -18.7493 -1.65281 -12.0799
upperback -0.584773 0.241651 0.483877
thorax 9.88155 -0.523105 7.49188
lowerneck -1.871 -0.498396 -5.98292
upperneck 9.21748 -1.20925 7.85363
head 3.11167 -0.565745 3.32182
rclavicle 9.66093e-014 -6.36111e-014
rhumerus -26.8354 18.7225 -73.6888
rradius 43.4522
rwrist 0.27798
rhand 18.0725 -50.5061
rfingers 7.12502
rthumb 42.7354 -74.8449
lclavicle 9.66093e-014 -6.36111e-014
lhumerus -2.88192 -35.5983 22.5243
lradius 104.479
lwrist 12.6109
lhand -23.339 -35.0837
lfingers 7.12502
lthumb 3.11572 -5.12672
rfemur -45.5019 -3.99681 24.5673
rtibia 12.4471
rfoot 12.8763 -29.6938
rtoes -18.0755
lfemur -55.6052 -7.56899 -1.55789
ltibia 17.4618
lfoot 26.5331 10.066
ltoes -47.0717
228
root 12.6776 19.9963 9.32999 -137.188 -56.4407 542.981
lowerback -18.504 -1.7371 -12.3515
upperback -0.592989 0.166518 0.268968
thorax 9.7518 -0.559973 7.37951
lowerneck -1.75353 -0.459785 -5.93564
upperneck 8.97589 -1.13131 7.56036
head 3.35429 -0.564448 3.57638
rclavicle 7.39479e-014 3.33958e-014
rhumerus -27.5285 18.6043 -73.3595
rradius 43.3711
rwrist 0.39072
rhand 18.6715 -51.2049
rfingers 7.12502
rthumb 43.2956 -75.3456
lclavicle 7.39479e-014 3.33958e-014
lhumerus -2.99362 -36.454 24.142
lradius 102.785
lwrist 11.8888
lhand -23.1131 -35.4351
lfingers 7.12502
lthumb 3.33392 -5.48143
rfemur -45.6384 -3.57393 25.2194
rtibia 11.6136
rfoot 12.4952 -29.9383
rtoes -20.2398
lfemur -56.0106 -9.34642 1.75771
ltibia 15.76
lfoot 25.011 11.8496
ltoes -46.7372
229
root 12.7238 19.7089 9.37406 -138.144 -54.252 544.449
lowerback -18.1196 -1.83916 -12.2548
upperback -0.596055 -0.0367382 0.141215
thorax 9.57639 -0.638983 7.12117
lowerneck -1.64609 -0.389904 -6.08425
upperneck 9.22087 -1.08003 7.82847
head 3.06619 -0.516217 3.33519
rclavicle -1.21656e-013 3.18055e-015
rhumerus -28.265 18.9227 -73.0834
rradius 43.4036
rwrist 0.364909
rhand 18.3786 -51.7693
rfingers 7.12502
rthumb 43.0217 -76.0076
lclavicle -1.21656e-013 3.18055e-015
lhumerus -3.42966 -37.1831 26.1246
lradius 100.883
lwrist 11
lhand -23.3763 -35.2408
lfingers 7.12502
lthumb 3.07974 -5.28329
rfemur -46.3504 -3.95453 26.7316
rtibia 12.0761
rfoot 12.239 -29.0543
rtoes -23.4933
lfemur -56.6148 -11.039 5.37001
ltibia 14.5924
lfoot 23.9731 13.2915
ltoes -45.1888
230
root 12.7691 19.4111 9.41957 -138.965 -52.1816 545.908
lowerback -17.805 -1.92758 -12.0415
upperback -0.593898 -0.237874 0.0510866
thorax 9.44292 -0.715875 6.84263
lowerneck -1.73986 -0.360517 -6.28894
upperneck 9.24983 -1.03358 7.87014
head 3.08794 -0.497582 3.38357
rclavicle 4.53229e-014 1.58233e-013
rhumerus -29.021 19.1379 -72.7644
rradius 43.4929
rwrist 0.771204
rhand 17.6106 -52.4938
rfingers 7.12502
rthumb 42.303 -76.9815
lclavicle 4.53229e-014 1.58233e-013
lhumerus -3.82172 -37.8057 28.1915
lradius 98.9929
lwrist 10.1747
lhand -23.9668 -35.013
lfingers 7.12502
lthumb 2.50944 -5.04806
rfemur -46.6385 -4.2078 28.3789
rtibia 11.6359
rfoot 13.9506 -27.917
rtoes -24.001
lfemur -57.4894 -12.1245 8.65862
ltibia 13.9274
lfoot 23.6629 14.0881
ltoes -41.6399
231
root 12.8259 19.1104 9.4763 -139.697 -49.3966 546.583
lowerback -16.6636 -1.85777 -12.6663
upperback -0.565191 -0.159303 -0.295879
thorax 8.82037 -0.661365 6.82296
lowerneck -1.74307 -0.368271 -6.28662
upperneck 9.24845 -1.04879 7.87545
head 3.08911 -0.506621 3.38421
rclavicle 1.66979e-014 9.46215e-014
rhumerus -30.0895 18.8934 -72.5111
rradius 43.7324
rwrist 1.52165
rhand 15.5839 -52.6082
rfingers 7.12502
rthumb 40.401 -77.7121
lclavicle 1.66979e-014 9.46215e-014
lhumerus -4.0779 -38.4138 30.1475
lradius 97.1743
lwrist 9.61668
lhand -24.1341 -34.8923
lfingers 7.12502
lthumb 2.34787 -4.9255
rfemur -46.7969 -4.57848 29.3398
rtibia 11.9981
rfoot 16.1492 -26.111
rtoes -24.7228
lfemur -57.74 -13.3313 10.8934
ltibia 13.5663
lfoot 23.3115 15.442
ltoes -36.4472
232
root 12.8651 18.7898 9.5209 -140.576 -47.2337 547.879
lowerback -16.0311 -1.8121 -12.6317
upperback -0.606803 -0.198527 -0.39581
thorax 8.42527 -0.651113 6.68018
lowerneck -1.67249 -0.363797 -6.37807
upperneck 9.24411 -1.0483 7.89262
head 3.07637 -0.512358 3.40464
rclavicle 1.74931e-014 -8.5875e-014
rhumerus -31.3594 18.7331 -72.1359
rradius 44.1623
rwrist 1.79291
rhand 18.7871 -52.6126
rfingers 7.12502
rthumb 43.4035 -76.7144
lclavicle 1.74931e-014 -8.5875e-014
lhumerus -4.43332 -38.897 32.3768
lradius 95.1659
lwrist 9.13869
lhand -23.5661 -34.7832
lfingers 7.12502
lthumb 2.89637 -4.8231
rfemur -47.2061 -4.9873 31.177
rtibia 12.4147
rfoot 18.2616 -23.8653
rtoes -25.9748
lfemur -58.3076 -13.5639 12.7181
ltibia 13.9419
lfoot 23.8408 15.605
ltoes -34.9865
233
root 12.8894 18.4472 9.56451 -141.405 -45.1772 549.36
lowerback -15.8298 -1.77309 -12.2979
upperback -0.573059 -0.235959 -0.350339
thorax 8.35514 -0.652673 6.53238
lowerneck -1.63865 -0.359238 -6.53495
upperneck 9.2377 -1.04333 7.92926
head 3.06911 -0.516147 3.44207
rclavicle 2.14687e-014 -3.02153e-014
rhumerus -32.486 18.8541 -71.5791
rradius 44.5338
rwrist 1.67157
rhand 20.1112 -52.6583
rfingers 7.12502
rthumb 44.6387 -76.2988
lclavicle 2.14687e-014 -3.02153e-014
lhumerus -4.99031 -39.0566 34.9914
lradius 92.9185
lwrist 8.47206
lhand -22.824 -34.769
lfingers 7.12502
lthumb 3.61305 -4.81987
rfemur -47.8312 -5.61942 33.5691
rtibia 13.2256
rfoot 20.3122 -20.8436
rtoes -26.1009
lfemur -58.9075 -12.7494 13.3863
ltibia 15.032
lfoot 25.2394 14.4621
ltoes -36.9368
